<?xml version="1.0" encoding="UTF-8"?>
<!DOCTYPE svg PUBLIC "-//W3C//DTD SVG 1.1//EN" "http://www.w3.org/Graphics/SVG/1.1/DTD/svg11.dtd">
<svg xmlns="http://www.w3.org/2000/svg" version="1.1" width="500px" height="591px" style="shape-rendering:geometricPrecision; text-rendering:geometricPrecision; image-rendering:optimizeQuality; fill-rule:evenodd; clip-rule:evenodd" xmlns:xlink="http://www.w3.org/1999/xlink">
<g><path style="opacity:0.994" fill="#010102" d="M 249.5,11.5 C 329.102,37.0892 408.769,62.5892 488.5,88C 491.271,166.265 479.771,242.431 454,316.5C 431.738,375.397 400.071,428.397 359,475.5C 324.881,512.622 288.547,547.289 250,579.5C 196.609,535.28 149.609,485.28 109,429.5C 39.5994,326.426 6.76607,212.593 10.5,88C 90.4342,62.965 170.101,37.465 249.5,11.5 Z M 249.5,83.5 C 305.041,101.624 360.707,119.458 416.5,137C 421.593,262.413 377.927,367.413 285.5,452C 273.667,462.5 261.833,473 250,483.5C 202.601,444.123 163.268,398.123 132,345.5C 96.2391,280.319 79.7391,210.819 82.5,137C 138.373,119.43 194.039,101.597 249.5,83.5 Z M 248.5,255.5 C 254.303,262.816 259.97,270.316 265.5,278C 260.456,285.255 255.289,292.422 250,299.5C 244.324,292.139 239.157,284.473 234.5,276.5C 238.915,269.338 243.582,262.338 248.5,255.5 Z"/></g>
<g><path style="opacity:1" fill="#2d3091" d="M 248.5,23.5 C 324.669,47.0441 400.669,71.2107 476.5,96C 481.192,194.859 460.692,288.359 415,376.5C 395.442,410.721 372.775,442.721 347,472.5C 316.539,505.631 284.206,536.631 250,565.5C 204.081,525.921 162.747,482.254 126,434.5C 54.0207,333.241 18.8541,220.241 20.5,95.5C 96.892,72.3674 172.892,48.3674 248.5,23.5 Z M 249.5,83.5 C 194.039,101.597 138.373,119.43 82.5,137C 79.7391,210.819 96.2391,280.319 132,345.5C 163.268,398.123 202.601,444.123 250,483.5C 261.833,473 273.667,462.5 285.5,452C 377.927,367.413 421.593,262.413 416.5,137C 360.707,119.458 305.041,101.624 249.5,83.5 Z M 248.5,255.5 C 243.582,262.338 238.915,269.338 234.5,276.5C 239.157,284.473 244.324,292.139 250,299.5C 255.289,292.422 260.456,285.255 265.5,278C 259.97,270.316 254.303,262.816 248.5,255.5 Z"/></g>
<g><path style="opacity:0.994" fill="#010001" d="M 247.5,72.5 C 308.161,91.4978 368.827,110.498 429.5,129.5C 430.184,184.034 422.684,237.367 407,289.5C 390.28,337.299 365.614,380.299 333,418.5C 307.19,446.981 279.524,473.314 250,497.5C 200.018,457.204 158.351,409.87 125,355.5C 86.6299,285.176 68.1299,209.843 69.5,129.5C 129.071,111.11 188.405,92.1099 247.5,72.5 Z M 249.5,83.5 C 194.039,101.597 138.373,119.43 82.5,137C 79.7391,210.819 96.2391,280.319 132,345.5C 163.268,398.123 202.601,444.123 250,483.5C 261.833,473 273.667,462.5 285.5,452C 377.927,367.413 421.593,262.413 416.5,137C 360.707,119.458 305.041,101.624 249.5,83.5 Z M 248.5,255.5 C 243.582,262.338 238.915,269.338 234.5,276.5C 239.157,284.473 244.324,292.139 250,299.5C 255.289,292.422 260.456,285.255 265.5,278C 259.97,270.316 254.303,262.816 248.5,255.5 Z"/></g>
<g><path style="opacity:0.994" fill="#010102" d="M 248.5,101.5 C 249.117,101.611 249.617,101.944 250,102.5C 262.333,144.833 274.667,187.167 287,229.5C 310.416,244.458 333.916,259.292 357.5,274C 359.585,275.041 361.252,276.541 362.5,278.5C 337.467,294.697 312.3,310.697 287,326.5C 274.975,368.602 262.642,410.602 250,452.5C 237.081,409.907 224.248,367.24 211.5,324.5C 186.294,308.736 161.294,292.736 136.5,276.5C 161.294,260.264 186.294,244.264 211.5,228.5C 224.444,186.336 236.777,144.003 248.5,101.5 Z M 248.5,255.5 C 243.582,262.338 238.915,269.338 234.5,276.5C 239.157,284.473 244.324,292.139 250,299.5C 255.289,292.422 260.456,285.255 265.5,278C 259.97,270.316 254.303,262.816 248.5,255.5 Z"/></g>
<g><path style="opacity:1" fill="#2d308f" d="M 330.5,270.5 C 326.03,271.486 321.363,271.819 316.5,271.5C 301.821,271.144 287.155,270.477 272.5,269.5C 264.667,258.5 256.833,247.5 249,236.5C 241.307,246.693 233.807,257.027 226.5,267.5C 206.538,269.313 186.538,270.146 166.5,270C 184.667,258.5 202.833,247 221,235.5C 230.333,203.5 239.667,171.5 249,139.5C 258.641,172.186 268.474,204.853 278.5,237.5C 295.898,248.525 313.231,259.525 330.5,270.5 Z"/></g>
<g><path style="opacity:1" fill="#2a2963" d="M 330.5,270.5 C 331.473,270.987 332.473,271.487 333.5,272C 327.651,272.818 321.985,272.652 316.5,271.5C 321.363,271.819 326.03,271.486 330.5,270.5 Z"/></g>
<g><path style="opacity:1" fill="#2d3090" d="M 166.5,283.5 C 168.304,282.838 170.304,282.505 172.5,282.5C 190.51,283.134 208.51,283.967 226.5,285C 234.333,296.167 242.167,307.333 250,318.5C 257.623,308.088 265.123,297.588 272.5,287C 292.139,285.465 311.806,284.799 331.5,285C 313.752,296.625 295.918,308.125 278,319.5C 268.795,351.183 259.462,382.849 250,414.5C 240.483,382.093 230.816,349.76 221,317.5C 202.949,305.942 184.782,294.609 166.5,283.5 Z"/></g>
</svg>
