<?xml version="1.0" encoding="UTF-8"?>
<svg xmlns="http://www.w3.org/2000/svg" xmlns:xlink="http://www.w3.org/1999/xlink" width="500px" height="591px" viewBox="0 0 500 583" version="1.1">
<g id="surface1">
<path style="fill-rule:nonzero;fill:rgb(18.039216%,19.215686%,57.254902%);fill-opacity:1;stroke-width:1;stroke-linecap:butt;stroke-linejoin:miter;stroke:rgb(13.72549%,12.156863%,12.54902%);stroke-opacity:1;stroke-miterlimit:10;" d="M 23.900161 1.379973 L 1.280108 8.589842 C 1.280108 34.120094 14.730164 46.589888 23.900161 54.770027 C 35.149838 45.010142 46.410044 34.109936 46.410044 8.589842 Z M 23.879856 46.990185 C 23.019934 46.229846 22.120156 45.410063 21.189921 44.539868 C 20.260061 43.659891 19.309898 42.729876 18.360111 41.709945 C 17.409948 40.690014 16.46016 39.609888 15.540077 38.430064 C 15.079848 37.840152 14.619995 37.229924 14.180069 36.589975 C 13.290067 35.319858 12.439921 33.959825 11.660087 32.480154 C 11.270171 31.74013 10.900182 30.980167 10.53997 30.190106 C 9.830074 28.609984 9.19989 26.909848 8.679876 25.090075 C 7.630072 21.439994 6.999888 17.289917 6.999888 12.529989 L 23.879856 7.150051 L 40.680112 12.529989 C 40.680112 31.57986 32.280172 39.709963 23.879856 46.990185 Z M 23.879856 46.990185 " transform="matrix(10.388839,0,0,10.382903,2.330068,0)"/>
<path style="fill-rule:nonzero;fill:rgb(18.039216%,19.215686%,57.254902%);fill-opacity:1;stroke-width:1;stroke-linecap:butt;stroke-linejoin:miter;stroke:rgb(13.72549%,12.156863%,12.54902%);stroke-opacity:1;stroke-miterlimit:10;" d="M 23.87008 41.43982 L 26.990165 30.729981 L 33.780054 26.45989 L 26.990165 22.190175 L 23.820072 11.309909 L 20.699987 22.020124 L 13.910098 26.289839 L 20.699987 30.559929 Z M 21.85996 26.610001 L 14.250006 26.289839 L 21.85996 25.970052 L 23.779839 23.249986 L 25.829816 26.140103 L 33.440146 26.45989 L 25.829816 26.780053 L 23.909937 29.500119 Z M 21.85996 26.610001 " transform="matrix(10.388839,0,0,10.382903,2.330068,0)"/>
</g>
</svg>
