<?xml version="1.0" encoding="UTF-8"?>
<svg id="Layer_2" data-name="Layer 2" xmlns="http://www.w3.org/2000/svg" viewBox="0 0 47.68 56.15">
  <defs>
    <style>
      .cls-1 {
        fill: none;
        stroke-width: 0px;
      }

      .cls-2 {
        fill: #2e3192;
        stroke: #231f20;
        stroke-miterlimit: 10;
      }
    </style>
  </defs>
  <path class="cls-1" d="M14.18,35.33c-.89-1.27-1.74-2.63-2.52-4.11.78,1.47,1.63,2.84,2.52,4.11Z"/>
  <path class="cls-1" d="M10.54,28.93c-.71-1.58-1.34-3.28-1.86-5.1.52,1.82,1.15,3.52,1.86,5.1Z"/>
  <path class="cls-1" d="M18.36,40.45c-.95-1.01-1.9-2.1-2.82-3.28.92,1.18,1.87,2.27,2.82,3.28Z"/>
  <path class="cls-1" d="M18.36,40.45c.95,1.01,1.9,1.95,2.83,2.83-.93-.88-1.88-1.81-2.83-2.83Z"/>
  <path class="cls-2" d="M23.9,1.38L1.28,8.59c0,25.53,13.45,38,22.62,46.18,11.25-9.76,22.51-20.66,22.51-46.18L23.9,1.38ZM23.88,46.99c-.86-.76-1.76-1.58-2.69-2.45-.93-.88-1.88-1.81-2.83-2.83s-1.9-2.1-2.82-3.28c-.46-.59-.92-1.2-1.36-1.84-.89-1.27-1.74-2.63-2.52-4.11-.39-.74-.76-1.5-1.12-2.29-.71-1.58-1.34-3.28-1.86-5.1-1.05-3.65-1.68-7.8-1.68-12.56l16.88-5.38,16.8,5.38c0,19.05-8.4,27.18-16.8,34.46Z"/>
  <path class="cls-2" d="M23.87,41.44l3.12-10.71,6.79-4.27-6.79-4.27-3.17-10.88-3.12,10.71-6.79,4.27,6.79,4.27,3.17,10.88ZM21.86,26.61l-7.61-.32,7.61-.32,1.92-2.72,2.05,2.89,7.61.32-7.61.32-1.92,2.72-2.05-2.89Z"/>
</svg>